REM DIRINDEX 1\8,1\2\11,1\3\12,1\3\14,1\5\15,1\5\16,1\6\17,1\6\18,1\4\19,1\4\20,1\4\21,1\4\22,1\7\23,1\7\24,1\7\25,1\2\9\26,1\2\9\27,1\2\10\28,1\2\10\29,1\2\10\30,1\2\10\31,1\2\10\32,1\3\13\33,1\3\13\34,1\3\13\35
REM DIRNAME cjc123,folder01,folder02,folder03,folder04,folder05,folder06,folder07,folder08,folder09,folder10,folder11,folder12,folder13,folder14,folder15,folder16,folder17,folder18,folder19,folder20,folder21,folder22,folder23,folder24,folder25,folder26,folder27,folder28,folder29,folder30,folder31,folder32,folder33,folder34
TITLE ""
FILE "1-07 007_UNIT1_SET5.mp3" MP3
  TRACK 01 AUDIO
    TITLE "11:cjc123_0387"
    INDEX 01 00:00:00
  TRACK 02 AUDIO
    TITLE "0:"
    INDEX 01 00:02:47
  TRACK 03 AUDIO
    TITLE "28:cjc123_0388"
    INDEX 01 00:03:27
  TRACK 04 AUDIO
    TITLE "0:"
    INDEX 01 00:04:46
  TRACK 05 AUDIO
    TITLE "29:cjc123_0389"
    INDEX 01 00:04:62
  TRACK 06 AUDIO
    TITLE "0:"
    INDEX 01 00:05:73
  TRACK 07 AUDIO
    TITLE "30:cjc123_0390"
    INDEX 01 00:06:08
  TRACK 08 AUDIO
    TITLE "0:"
    INDEX 01 00:07:31
  TRACK 09 AUDIO
    TITLE "31:cjc123_0391"
    INDEX 01 00:08:01
  TRACK 10 AUDIO
    TITLE "0:"
    INDEX 01 00:11:05
  TRACK 11 AUDIO
    TITLE "32:cjc123_0392"
    INDEX 01 00:11:42
  TRACK 12 AUDIO
    TITLE "0:"
    INDEX 01 00:14:29
  TRACK 13 AUDIO
    TITLE "28:cjc123_0393"
    INDEX 01 00:15:05
  TRACK 14 AUDIO
    TITLE "0:"
    INDEX 01 00:16:14
  TRACK 15 AUDIO
    TITLE "29:cjc123_0394"
    INDEX 01 00:16:26
  TRACK 16 AUDIO
    TITLE "0:"
    INDEX 01 00:17:27
  TRACK 17 AUDIO
    TITLE "30:cjc123_0395"
    INDEX 01 00:17:43
  TRACK 18 AUDIO
    TITLE "0:"
    INDEX 01 00:18:48
  TRACK 19 AUDIO
    TITLE "31:cjc123_0396"
    INDEX 01 00:19:18
  TRACK 20 AUDIO
    TITLE "0:"
    INDEX 01 00:21:58
  TRACK 21 AUDIO
    TITLE "32:cjc123_0397"
    INDEX 01 00:22:29
  TRACK 22 AUDIO
    TITLE "0:"
    INDEX 01 00:24:51
  TRACK 23 AUDIO
    TITLE "28:cjc123_0398"
    INDEX 01 00:25:25
  TRACK 24 AUDIO
    TITLE "0:"
    INDEX 01 00:26:24
  TRACK 25 AUDIO
    TITLE "29:cjc123_0399"
    INDEX 01 00:26:46
  TRACK 26 AUDIO
    TITLE "0:"
    INDEX 01 00:27:65
  TRACK 27 AUDIO
    TITLE "30:cjc123_0400"
    INDEX 01 00:27:71
  TRACK 28 AUDIO
    TITLE "0:"
    INDEX 01 00:28:74
  TRACK 29 AUDIO
    TITLE "31:cjc123_0401"
    INDEX 01 00:29:48
  TRACK 30 AUDIO
    TITLE "0:"
    INDEX 01 00:32:33
  TRACK 31 AUDIO
    TITLE "32:cjc123_0402"
    INDEX 01 00:32:64
  TRACK 32 AUDIO
    TITLE "0:"
    INDEX 01 00:35:15
  TRACK 33 AUDIO
    TITLE "28:cjc123_0403"
    INDEX 01 00:35:63
  TRACK 34 AUDIO
    TITLE "0:"
    INDEX 01 00:36:62
  TRACK 35 AUDIO
    TITLE "29:cjc123_0404"
    INDEX 01 00:36:72
  TRACK 36 AUDIO
    TITLE "0:"
    INDEX 01 00:37:57
  TRACK 37 AUDIO
    TITLE "30:cjc123_0405"
    INDEX 01 00:37:63
  TRACK 38 AUDIO
    TITLE "0:"
    INDEX 01 00:38:55
  TRACK 39 AUDIO
    TITLE "31:cjc123_0406"
    INDEX 01 00:39:29
  TRACK 40 AUDIO
    TITLE "0:"
    INDEX 01 00:41:42
  TRACK 41 AUDIO
    TITLE "32:cjc123_0407"
    INDEX 01 00:42:00
  TRACK 42 AUDIO
    TITLE "0:"
    INDEX 01 00:44:50
  TRACK 43 AUDIO
    TITLE "28:cjc123_0408"
    INDEX 01 00:45:22
  TRACK 44 AUDIO
    TITLE "0:"
    INDEX 01 00:46:35
  TRACK 45 AUDIO
    TITLE "29:cjc123_0409"
    INDEX 01 00:46:54
  TRACK 46 AUDIO
    TITLE "0:"
    INDEX 01 00:48:08
  TRACK 47 AUDIO
    TITLE "30:cjc123_0410"
    INDEX 01 00:48:14
  TRACK 48 AUDIO
    TITLE "0:"
    INDEX 01 00:49:35
  TRACK 49 AUDIO
    TITLE "31:cjc123_0411"
    INDEX 01 00:50:05
  TRACK 50 AUDIO
    TITLE "0:"
    INDEX 01 00:52:73
  TRACK 51 AUDIO
    TITLE "32:cjc123_0412"
    INDEX 01 00:53:35
  TRACK 52 AUDIO
    TITLE "0:"
    INDEX 01 00:56:51
  TRACK 53 AUDIO
    TITLE "28:cjc123_0413"
    INDEX 01 00:57:21
  TRACK 54 AUDIO
    TITLE "0:"
    INDEX 01 00:58:20
  TRACK 55 AUDIO
    TITLE "29:cjc123_0414"
    INDEX 01 00:58:34
  TRACK 56 AUDIO
    TITLE "0:"
    INDEX 01 00:59:22
  TRACK 57 AUDIO
    TITLE "30:cjc123_0415"
    INDEX 01 00:59:32
  TRACK 58 AUDIO
    TITLE "0:"
    INDEX 01 01:00:17
  TRACK 59 AUDIO
    TITLE "31:cjc123_0416"
    INDEX 01 01:00:68
  TRACK 60 AUDIO
    TITLE "0:"
    INDEX 01 01:03:51
  TRACK 61 AUDIO
    TITLE "32:cjc123_0417"
    INDEX 01 01:04:13
  TRACK 62 AUDIO
    TITLE "0:"
    INDEX 01 01:06:53
  TRACK 63 AUDIO
    TITLE "28:cjc123_0418"
    INDEX 01 01:07:17
  TRACK 64 AUDIO
    TITLE "0:"
    INDEX 01 01:08:09
  TRACK 65 AUDIO
    TITLE "29:cjc123_0419"
    INDEX 01 01:08:40
  TRACK 66 AUDIO
    TITLE "0:"
    INDEX 01 01:09:44
  TRACK 67 AUDIO
    TITLE "30:cjc123_0420"
    INDEX 01 01:09:52
  TRACK 68 AUDIO
    TITLE "0:"
    INDEX 01 01:10:51
  TRACK 69 AUDIO
    TITLE "31:cjc123_0421"
    INDEX 01 01:11:21
  TRACK 70 AUDIO
    TITLE "0:"
    INDEX 01 01:14:19
  TRACK 71 AUDIO
    TITLE "32:cjc123_0422"
    INDEX 01 01:14:68
  TRACK 72 AUDIO
    TITLE "0:"
    INDEX 01 01:18:31
  TRACK 73 AUDIO
    TITLE "28:cjc123_0423"
    INDEX 01 01:19:07
  TRACK 74 AUDIO
    TITLE "0:"
    INDEX 01 01:20:08
  TRACK 75 AUDIO
    TITLE "29:cjc123_0424"
    INDEX 01 01:20:26
  TRACK 76 AUDIO
    TITLE "0:"
    INDEX 01 01:21:33
  TRACK 77 AUDIO
    TITLE "30:cjc123_0425"
    INDEX 01 01:21:45
  TRACK 78 AUDIO
    TITLE "0:"
    INDEX 01 01:22:41
  TRACK 79 AUDIO
    TITLE "31:cjc123_0426"
    INDEX 01 01:23:18
  TRACK 80 AUDIO
    TITLE "0:"
    INDEX 01 01:26:19
  TRACK 81 AUDIO
    TITLE "32:cjc123_0427"
    INDEX 01 01:26:50
  TRACK 82 AUDIO
    TITLE "0:"
    INDEX 01 01:29:27
  TRACK 83 AUDIO
    TITLE "28:cjc123_0428"
    INDEX 01 01:29:68
  TRACK 84 AUDIO
    TITLE "0:"
    INDEX 01 01:30:54
  TRACK 85 AUDIO
    TITLE "29:cjc123_0429"
    INDEX 01 01:30:69
  TRACK 86 AUDIO
    TITLE "0:"
    INDEX 01 01:31:69
  TRACK 87 AUDIO
    TITLE "30:cjc123_0430"
    INDEX 01 01:32:04
  TRACK 88 AUDIO
    TITLE "0:"
    INDEX 01 01:32:66
  TRACK 89 AUDIO
    TITLE "31:cjc123_0431"
    INDEX 01 01:33:38
  TRACK 90 AUDIO
    TITLE "0:"
    INDEX 01 01:36:64
  TRACK 91 AUDIO
    TITLE "32:cjc123_0432"
    INDEX 01 01:37:19
  TRACK 92 AUDIO
    TITLE "0:"
    INDEX 01 01:39:49
  TRACK 93 AUDIO
    TITLE "28:cjc123_0433"
    INDEX 01 01:40:21
  TRACK 94 AUDIO
    TITLE "0:"
    INDEX 01 01:41:40
  TRACK 95 AUDIO
    TITLE "29:cjc123_0434"
    INDEX 01 01:41:52
  TRACK 96 AUDIO
    TITLE "0:"
    INDEX 01 01:42:39
  TRACK 97 AUDIO
    TITLE "30:cjc123_0435"
    INDEX 01 01:42:49
  TRACK 98 AUDIO
    TITLE "0:"
    INDEX 01 01:43:74
  TRACK 99 AUDIO
    TITLE "31:cjc123_0436"
    INDEX 01 01:44:44
  TRACK 100 AUDIO
    TITLE "0:"
    INDEX 01 01:47:37
  TRACK 101 AUDIO
    TITLE "32:cjc123_0437"
    INDEX 01 01:47:74
  TRACK 102 AUDIO
    TITLE "0:"
    INDEX 01 01:50:68
  TRACK 103 AUDIO
    TITLE "28:cjc123_0438"
    INDEX 01 01:51:36
  TRACK 104 AUDIO
    TITLE "0:"
    INDEX 01 01:52:53
  TRACK 105 AUDIO
    TITLE "29:cjc123_0439"
    INDEX 01 01:52:63
  TRACK 106 AUDIO
    TITLE "0:"
    INDEX 01 01:54:09
  TRACK 107 AUDIO
    TITLE "30:cjc123_0440"
    INDEX 01 01:54:17
  TRACK 108 AUDIO
    TITLE "0:"
    INDEX 01 01:55:30
  TRACK 109 AUDIO
    TITLE "31:cjc123_0441"
    INDEX 01 01:56:02
  TRACK 110 AUDIO
    TITLE "0:"
    INDEX 01 01:59:57
  TRACK 111 AUDIO
    TITLE "32:cjc123_0442"
    INDEX 01 02:00:14
  TRACK 112 AUDIO
    TITLE "0:"
    INDEX 01 02:04:31
  TRACK 113 AUDIO
    TITLE "28:cjc123_0443"
    INDEX 01 02:04:72
  TRACK 114 AUDIO
    TITLE "0:"
    INDEX 01 02:05:64
  TRACK 115 AUDIO
    TITLE "29:cjc123_0444"
    INDEX 01 02:05:74
  TRACK 116 AUDIO
    TITLE "0:"
    INDEX 01 02:06:59
  TRACK 117 AUDIO
    TITLE "30:cjc123_0445"
    INDEX 01 02:06:61
  TRACK 118 AUDIO
    TITLE "0:"
    INDEX 01 02:07:53
  TRACK 119 AUDIO
    TITLE "31:cjc123_0446"
    INDEX 01 02:08:23
  TRACK 120 AUDIO
    TITLE "0:"
    INDEX 01 02:11:51
  TRACK 121 AUDIO
    TITLE "32:cjc123_0447"
    INDEX 01 02:12:11
  TRACK 122 AUDIO
    TITLE "0:"
    INDEX 01 02:15:23
  TRACK 123 AUDIO
    TITLE "28:cjc123_0448"
    INDEX 01 02:15:68
  TRACK 124 AUDIO
    TITLE "0:"
    INDEX 01 02:17:14
  TRACK 125 AUDIO
    TITLE "29:cjc123_0449"
    INDEX 01 02:17:20
  TRACK 126 AUDIO
    TITLE "0:"
    INDEX 01 02:18:35
  TRACK 127 AUDIO
    TITLE "30:cjc123_0450"
    INDEX 01 02:18:43
  TRACK 128 AUDIO
    TITLE "0:"
    INDEX 01 02:19:50
  TRACK 129 AUDIO
    TITLE "31:cjc123_0451"
    INDEX 01 02:20:30
  TRACK 130 AUDIO
    TITLE "0:"
    INDEX 01 02:23:28
  TRACK 131 AUDIO
    TITLE "32:cjc123_0452"
    INDEX 01 02:23:50
  TRACK 132 AUDIO
    TITLE "0:"
    INDEX 01 02:26:29
  TRACK 133 AUDIO
    TITLE "28:cjc123_0453"
    INDEX 01 02:26:46
  TRACK 134 AUDIO
    TITLE "0:"
    INDEX 01 02:27:32
  TRACK 135 AUDIO
    TITLE "29:cjc123_0454"
    INDEX 01 02:27:56
  TRACK 136 AUDIO
    TITLE "0:"
    INDEX 01 02:28:63
  TRACK 137 AUDIO
    TITLE "30:cjc123_0455"
    INDEX 01 02:28:71
  TRACK 138 AUDIO
    TITLE "0:"
    INDEX 01 02:29:66
  TRACK 139 AUDIO
    TITLE "31:cjc123_0456"
    INDEX 01 02:30:40
  TRACK 140 AUDIO
    TITLE "0:"
    INDEX 01 02:32:59
  TRACK 141 AUDIO
    TITLE "32:cjc123_0457"
    INDEX 01 02:33:27
  TRACK 142 AUDIO
    TITLE "0:"
    INDEX 01 02:36:31
  TRACK 143 AUDIO
    TITLE "28:cjc123_0458"
    INDEX 01 02:36:74
  TRACK 144 AUDIO
    TITLE "0:"
    INDEX 01 02:37:64
  TRACK 145 AUDIO
    TITLE "29:cjc123_0459"
    INDEX 01 02:38:06
  TRACK 146 AUDIO
    TITLE "0:"
    INDEX 01 02:39:29
  TRACK 147 AUDIO
    TITLE "30:cjc123_0460"
    INDEX 01 02:39:35
  TRACK 148 AUDIO
    TITLE "0:"
    INDEX 01 02:40:23
  TRACK 149 AUDIO
    TITLE "31:cjc123_0461"
    INDEX 01 02:40:74
  TRACK 150 AUDIO
    TITLE "0:"
    INDEX 01 02:44:17
  TRACK 151 AUDIO
    TITLE "32:cjc123_0462"
    INDEX 01 02:44:50
  TRACK 152 AUDIO
    TITLE "0:"
    INDEX 01 02:48:42
